<svg xmlns="http://www.w3.org/2000/svg" xml:space="preserve" id="Layer_1" x="0" y="0" style="enable-background:new 0 0 100 25" version="1.1" viewBox="0 0 100 25"><style>.st0{fill-rule:evenodd;clip-rule:evenodd;fill:#fff}</style><path d="M0 23v-2h1.2c.5 0 1.7-.1 1.7-1.5V7c0-.8 0-2.6-1.5-2.6H.1l1.5-2.7h89.2v2.7H8.7c-.8 0-1.8.2-1.8 1.7v4c.2.4 1 .6 1.2.6s1.6 0 1.6-2h1.7v6.5H9.7c0-.6-.6-1.5-1.5-1.6-.7 0-1.3.2-1.3 1v5c0 .5.7 1.5 2.2 1.5h1v2H0z" class="st0"/><path d="M51.5 7.5c0 .4.5.9.9 1 .4-.3 2.5-1.5 4.2-1.5 1.7 0 2.6.9 2.6 2.2v6.4h-4v-5c0-.6-.3-1-.8-1.1-.6 0-2.1 1.2-2.5 1.7V20c0 .8.8 1.4 1.5 1.4v1.7h-7v-1.7c.6 0 1.4-.3 1.4-1.3v-9.8c0-.3-.4-1.1-1.5-1.1V7.5h5.2zm48.5 0h-7v1.7c1 0 1.4.8 1.4 1v9.9c0 1-.8 1.2-1.5 1.2v1.8h7.1v-1.7c-.7 0-1.5-.6-1.5-1.4v-9.6c0-.7.7-1.2 1.5-1.2V7.5zm-64.2 0c0 .4.6.9 1 1C37 8.2 39.2 7 41 7s2.5.9 2.5 2.2v6.4h-4v-5c0-.6-.2-1-.8-1.1-.6 0-2 1.2-2.5 1.7V20c0 .8.8 1.4 1.5 1.4v1.7h-7v-1.7c.6 0 1.4-.3 1.4-1.3v-9.8c0-.3-.4-1.1-1.5-1.1V7.5h5.2zm47 0c0 .4.6.9 1 1C84.2 8.2 86.3 7 88 7s2.6.9 2.6 2.2v6.4h-4.1v-5c0-.6-.2-1-.8-1.1-.5 0-2 1.2-2.5 1.7V20c0 .8.9 1.4 1.6 1.4v1.7h-7.1v-1.7c.7 0 1.4-.3 1.5-1.3v-9.8c0-.3-.5-1.1-1.5-1.1V7.5h5.1zM27.6 18.1h-4v1.6c0 .7-.2 2-2 2-2 0-2.6-1.3-2.6-2.2v-3.3c0-.3.2-.7.7-.7h7.9v-4.3c0-2-.4-2.5-1.2-3.3-.8-.8-3.7-1-5-1-3.2 0-4.2.4-5.2 1.2-.9.7-1.2 2.3-1.2 3.5v6.5c0 1.8.3 3 1.4 4 1.1 1.2 4.5 1.2 5.2 1.2.6 0 3 0 4.6-1.2 1.7-1.2 1.4-4 1.4-4zM19 11.1c0-1 .3-2.4 2.3-2.4s2.2 1.5 2.2 2.4v2c0 .4-.3.7-.6.7h-3.2c-.4 0-.7-.3-.7-.6V11zm55.1 9v-8.8c0-1.3 0-2.7-1.5-3.7s-3.6-1-4.5-1c-.9 0-3.8 0-5.1 1.6-1.3 1.5-1.1 3-1.1 3.5h3.8s.3-2 .8-2.5 1.9-1 3-.1c.4.3.5.7.5 1.2v2.5c0 .3-.2.6-.5.6 0 0-5.3.1-6.2.8-1 .7-1.7 1.2-1.7 3.7 0 2.6.6 3.6 1.4 4.1.7.5 1 1.1 4.5 1.1h8.1v-1.7c-.7 0-1.5-.5-1.5-1.4zm-4 1-.5.2h-2c-1.4 0-1.8-1.2-1.8-2v-2.1c0-2.2 2.3-2.1 3.2-2.1.9 0 1 .7 1 1.2V21zM96.1 4.3c2 0 3.7-.6 3.7-1.4 0-.7-1.7-1.4-3.7-1.4s-3.7.7-3.7 1.4c0 .8 1.7 1.4 3.7 1.4z" class="st0"/></svg>